<svg xmlns="http://www.w3.org/2000/svg" viewBox="0 0 120 120" fill="none">
  <defs>
    <linearGradient id="brand-bg" x1="14" y1="10" x2="106" y2="108" gradientUnits="userSpaceOnUse">
      <stop offset="0%" stop-color="#EF4444" />
      <stop offset="58%" stop-color="#DC2626" />
      <stop offset="100%" stop-color="#B91C1C" />
    </linearGradient>
    <linearGradient id="brand-shine" x1="14" y1="12" x2="96" y2="96" gradientUnits="userSpaceOnUse">
      <stop offset="0%" stop-color="rgba(255,255,255,0.92)" />
      <stop offset="100%" stop-color="rgba(255,255,255,0.14)" />
    </linearGradient>
    <linearGradient id="brand-accent" x1="74" y1="70" x2="86" y2="82" gradientUnits="userSpaceOnUse">
      <stop offset="0%" stop-color="#93C5FD" />
      <stop offset="100%" stop-color="#2563EB" />
    </linearGradient>
  </defs>

  <rect x="5" y="5" width="110" height="110" rx="30" fill="url(#brand-bg)" />
  <rect x="6.2" y="6.2" width="107.6" height="107.6" rx="28.8" stroke="url(#brand-shine)" stroke-opacity="0.72" />
  <circle cx="60" cy="60" r="32.8" fill="white" fill-opacity="0.14" stroke="white" stroke-opacity="0.28" />

  <path d="M40.2 55.8 60 43.6l19.8 12.2L60 68 40.2 55.8Z" fill="white" fill-opacity="0.96" />
  <path d="M48.6 62.4v10c0 5.3 6.2 10 11.4 10s11.4-4.7 11.4-10v-10" stroke="white" stroke-width="4.2" stroke-linecap="round" stroke-linejoin="round" />
  <path d="M79.2 56.6v14.8" stroke="white" stroke-width="3.8" stroke-linecap="round" />
  <circle cx="79.2" cy="75.8" r="4.4" fill="url(#brand-accent)" />
  <path d="M38 84.4c6.3 5.8 13.5 8.8 22 8.8 8.5 0 15.8-3 22-8.8" stroke="white" stroke-opacity="0.82" stroke-width="3.8" stroke-linecap="round" />
</svg>
